<mxfile host="65bd71144e">
    <diagram id="ugnDf-UcChWUXq1imx-R" name="Page-1">
        <mxGraphModel dx="1640" dy="400" grid="1" gridSize="10" guides="1" tooltips="1" connect="1" arrows="1" fold="1" page="1" pageScale="1" pageWidth="850" pageHeight="1100" math="0" shadow="0">
            <root>
                <mxCell id="0"/>
                <mxCell id="1" parent="0"/>
                <mxCell id="2" value="Diagramme de deploiement" style="shape=partialRectangle;html=1;top=1;align=left;dashed=1;" parent="1" vertex="1">
                    <mxGeometry x="-800" y="20" width="1640" height="20" as="geometry"/>
                </mxCell>
                <mxCell id="3" value="Antoine Fusilier - Remise Projet 2023 - 3W Academy - Développeur FullStack Web et Mobile" style="shape=partialRectangle;html=1;top=1;align=left;dashed=1;" parent="1" vertex="1">
                    <mxGeometry x="-800" y="1070" width="1640" height="20" as="geometry"/>
                </mxCell>
                <mxCell id="172" style="edgeStyle=orthogonalEdgeStyle;html=1;exitX=0;exitY=0;exitDx=485.00000000000006;exitDy=0;exitPerimeter=0;entryX=0;entryY=0;entryDx=135;entryDy=405;entryPerimeter=0;startArrow=block;startFill=1;" edge="1" parent="1" source="4" target="154">
                    <mxGeometry relative="1" as="geometry"/>
                </mxCell>
                <mxCell id="173" style="edgeStyle=orthogonalEdgeStyle;html=1;exitX=0;exitY=0;exitDx=485.00000000000006;exitDy=0;exitPerimeter=0;entryX=0;entryY=0;entryDx=270;entryDy=405;entryPerimeter=0;startArrow=block;startFill=1;" edge="1" parent="1" source="4" target="19">
                    <mxGeometry relative="1" as="geometry"/>
                </mxCell>
                <mxCell id="174" style="edgeStyle=orthogonalEdgeStyle;html=1;exitX=0;exitY=0;exitDx=485.00000000000006;exitDy=0;exitPerimeter=0;entryX=0;entryY=0;entryDx=35;entryDy=400;entryPerimeter=0;startArrow=block;startFill=1;" edge="1" parent="1" source="4" target="171">
                    <mxGeometry relative="1" as="geometry"/>
                </mxCell>
                <mxCell id="175" style="edgeStyle=orthogonalEdgeStyle;html=1;exitX=0;exitY=0;exitDx=485.00000000000006;exitDy=0;exitPerimeter=0;entryX=0;entryY=0;entryDx=35;entryDy=400;entryPerimeter=0;startArrow=block;startFill=1;" edge="1" parent="1" source="4" target="13">
                    <mxGeometry relative="1" as="geometry"/>
                </mxCell>
                <mxCell id="176" style="edgeStyle=orthogonalEdgeStyle;html=1;exitX=0;exitY=0;exitDx=495.00000000000006;exitDy=420;exitPerimeter=0;startArrow=block;startFill=1;" edge="1" parent="1" source="4" target="36">
                    <mxGeometry relative="1" as="geometry"/>
                </mxCell>
                <mxCell id="4" value="&amp;lt;&amp;lt;Docker&amp;lt;node&amp;gt;&amp;gt;&amp;gt;&lt;br&gt;App NodeJS PrestaLeblanc" style="verticalAlign=top;align=left;shape=cube;size=10;direction=south;fontStyle=0;html=1;boundedLbl=1;spacingLeft=5;whiteSpace=wrap;" parent="1" vertex="1">
                    <mxGeometry x="-290" y="60" width="420" height="980" as="geometry"/>
                </mxCell>
                <mxCell id="8" value="" style="fontColor=#0066CC;verticalAlign=top;verticalLabelPosition=bottom;labelPosition=center;align=center;html=1;outlineConnect=0;fillColor=#CCCCCC;strokeColor=#6881B3;gradientColor=none;gradientDirection=north;strokeWidth=2;shape=mxgraph.networks.secured;fontSize=14;" parent="4" vertex="1">
                    <mxGeometry x="389.2682926829268" y="-20.000000000000004" width="40.97560975609756" height="50.00000000000001" as="geometry"/>
                </mxCell>
                <mxCell id="11" value="" style="fontColor=#0066CC;verticalAlign=top;verticalLabelPosition=bottom;labelPosition=center;align=center;html=1;outlineConnect=0;fillColor=#CCCCCC;strokeColor=#6881B3;gradientColor=none;gradientDirection=north;strokeWidth=2;shape=mxgraph.networks.server;" parent="4" vertex="1">
                    <mxGeometry x="358.5365853658537" y="20.000000000000004" width="40.97560975609756" height="45.00000000000001" as="geometry"/>
                </mxCell>
                <mxCell id="133" value="&lt;&lt;npm-package&gt;&gt;&#10;Composant - Auth&#10;&#10;Composant d'authentification Google, Github, Prestashop..." style="shape=module;align=left;spacingLeft=20;align=center;verticalAlign=top;fillColor=#1ba1e2;fontColor=#FFFFFF;strokeColor=#006EAF;" parent="4" vertex="1">
                    <mxGeometry x="32.5" y="769.9971578947368" width="355" height="92.83073684210525" as="geometry"/>
                </mxCell>
                <mxCell id="134" value="&lt;&lt;npm-package&gt;&gt;&#10;Composant - Cyber Security&#10;&#10;Composant de sécurisation et d'encodage des données sensibles" style="shape=module;align=left;spacingLeft=20;align=center;verticalAlign=top;fillColor=#0050ef;fontColor=#ffffff;strokeColor=#001DBC;whiteSpace=wrap;" parent="4" vertex="1">
                    <mxGeometry x="32.5" y="879.9971578947368" width="355" height="92.83073684210525" as="geometry"/>
                </mxCell>
                <mxCell id="135" value="&lt;&lt;npm-package&gt;&gt;&#10;Composant - StylesPrestashop&#10;&#10;Modification en transfert stpf des feuilles de styles du thème Prestashop." style="shape=module;align=left;spacingLeft=20;align=center;verticalAlign=top;fillColor=#fa6800;strokeColor=#C73500;fontColor=#000000;whiteSpace=wrap;fontSize=13;" parent="4" vertex="1">
                    <mxGeometry x="32.5" y="639.9971578947368" width="355" height="92.83073684210525" as="geometry"/>
                </mxCell>
                <mxCell id="136" value="" style="shape=umlDestroy;whiteSpace=wrap;html=1;strokeWidth=1;dashed=1;fontColor=#ffffff;fillColor=#e51400;strokeColor=#B20000;" parent="4" vertex="1">
                    <mxGeometry x="49.269999999999996" y="644.41" width="340" height="84" as="geometry"/>
                </mxCell>
                <mxCell id="137" value="&lt;&lt;npm-package&gt;&gt;&#10;Composant - OrderManager&#10;&#10;Gestion et génération de bon de préparation sur l'ERP divalto lors d'une nouvelle commande" style="shape=module;align=left;spacingLeft=20;align=center;verticalAlign=top;fillColor=#fa6800;strokeColor=#C73500;fontColor=#000000;whiteSpace=wrap;fontSize=13;" parent="4" vertex="1">
                    <mxGeometry x="32.5" y="529.9971578947368" width="355" height="92.83073684210525" as="geometry"/>
                </mxCell>
                <mxCell id="138" value="&lt;&lt;npm-package&gt;&gt;&#10;Composant - LeblancModuleProduct&#10;&#10;Proposition de module produit en fonction des différentes bases articles, création assister d'un module produits, export de fichier xlsx suivant une trame donnée (Trame d'import Divalto par exemple)" style="shape=module;align=left;spacingLeft=20;align=center;verticalAlign=top;fillColor=#fa6800;strokeColor=#C73500;fontColor=#000000;whiteSpace=wrap;fontSize=13;" parent="4" vertex="1">
                    <mxGeometry x="34.27" y="390" width="355" height="122.83" as="geometry"/>
                </mxCell>
                <mxCell id="139" value="&lt;&lt;npm-package&gt;&gt;&#10;Composant - DivaltoSync&#10;&#10;Directement connecté à la base SQL Server de la partition Cloud du logiciel, regroupement des model de synchronisation avec une base passerelle" style="shape=module;align=left;spacingLeft=20;align=center;verticalAlign=top;fillColor=#1ba1e2;strokeColor=#006EAF;fontColor=#ffffff;whiteSpace=wrap;fontSize=13;" vertex="1" parent="4">
                    <mxGeometry x="34.27000000000001" y="250" width="355" height="122.83" as="geometry"/>
                </mxCell>
                <mxCell id="140" value="&lt;&lt;npm-package&gt;&gt;&#10;Composant - DomproSync&#10;&#10;Synchronisation des fichiers entre l'hébergement de backup, la base Prestashop et le serveur sftp de dompro.fr" style="shape=module;align=left;spacingLeft=20;align=center;verticalAlign=top;fillColor=#1ba1e2;strokeColor=#006EAF;fontColor=#ffffff;whiteSpace=wrap;fontSize=13;" vertex="1" parent="4">
                    <mxGeometry x="32.5" y="110" width="355" height="122.83" as="geometry"/>
                </mxCell>
                <mxCell id="13" value="&amp;lt;&amp;lt;sftp&amp;gt;&amp;gt;&lt;br&gt;&lt;b&gt;sftp.dompro.fr&lt;/b&gt;" style="verticalAlign=top;align=left;shape=cube;size=10;direction=south;fontStyle=0;html=1;boundedLbl=1;spacingLeft=5;fillColor=#f0a30a;fontColor=#000000;strokeColor=#BD7000;" parent="1" vertex="1">
                    <mxGeometry x="215" y="120" width="400" height="60" as="geometry"/>
                </mxCell>
                <mxCell id="19" value="&amp;lt;&amp;lt;cloud&amp;gt;&amp;gt;&lt;br&gt;&lt;b&gt;Partition Hostinger etsleblanc.com&lt;/b&gt;&lt;br&gt;Espace de backup de l'intégralité des fichiers, &lt;br&gt;textes juridiques, bases de données &lt;br&gt;et des codes sources" style="verticalAlign=top;align=left;shape=cube;size=10;direction=south;fontStyle=0;html=1;boundedLbl=1;spacingLeft=5;" parent="1" vertex="1">
                    <mxGeometry x="210" y="530" width="405" height="530" as="geometry"/>
                </mxCell>
                <mxCell id="20" style="edgeStyle=none;html=1;exitX=0;exitY=0;exitDx=80;exitDy=10;exitPerimeter=0;" parent="19" source="21" edge="1">
                    <mxGeometry relative="1" as="geometry"/>
                </mxCell>
                <mxCell id="21" value="/files =&amp;gt; files.etsleblanc.com" style="verticalAlign=top;align=center;shape=cube;size=10;direction=south;html=1;boundedLbl=1;spacingLeft=5;" parent="19" vertex="1">
                    <mxGeometry width="350" height="180" relative="1" as="geometry">
                        <mxPoint x="12" y="340" as="offset"/>
                    </mxGeometry>
                </mxCell>
                <mxCell id="22" value="" style="html=1;outlineConnect=0;fillColor=#CCCCCC;strokeColor=#6881B3;gradientColor=none;gradientDirection=north;strokeWidth=2;shape=mxgraph.networks.cloud;fontColor=#ffffff;" parent="19" vertex="1">
                    <mxGeometry x="326.25" y="31.97896103896104" width="56.25" height="23.08597402597403" as="geometry"/>
                </mxCell>
                <mxCell id="23" value="" style="shape=image;verticalLabelPosition=bottom;labelBackgroundColor=default;verticalAlign=top;aspect=fixed;imageAspect=0;image=data:image/svg+xml,PHN2ZyB4bWxucz0iaHR0cDovL3d3dy53My5vcmcvMjAwMC9zdmciIHdpZHRoPSIyMTEyIiB2aWV3Qm94PSI3LjAwMiA4LjI4NyAxNDguMjAzIDE3NS40MjYiIHN0cm9rZS1taXRlcmxpbWl0PSIyIiBzdHJva2UtbGluZWpvaW49InJvdW5kIiBoZWlnaHQ9IjI1MDAiIGZpbGwtcnVsZT0iZXZlbm9kZCIgY2xpcC1ydWxlPSJldmVub2RkIj48cGF0aCBmaWxsPSIjNjc0N2M3IiBkPSJtNy4wMDIgOC4yODcgMzkuMzE5IDIxLjE3MnYzOS4zMmg1Ny40NjdsMzYuMjk1IDIxLjE3MmgtMTMzLjA4MXptMTQ4LjIwMyA3NS42MTV2LTU0LjQ0M2wtNDIuMzQ0LTIxLjE3MnY1MS40MTh6bTAgOTkuODExLTM5LjMxOS0yMS4xNzJ2LTM5LjMyaC01Ny40NjdsLTM2LjI5NS0yMS4xNzJoMTMzLjA4MXptLTE0OC4yMDMtNzUuNjE1djU0LjQ0M2w0Mi4zNDMgMjEuMTcydi01MS40MTh6Ii8+PC9zdmc+;" parent="19" vertex="1">
                    <mxGeometry x="281.25" y="36.55172413793103" width="9.342043999534397" height="11.065490047724365" as="geometry"/>
                </mxCell>
                <mxCell id="24" value="&amp;lt;&amp;lt;MySQL&amp;gt;&amp;gt;&lt;br&gt;DB - Dompro" style="verticalAlign=top;align=center;shape=cube;size=10;direction=south;html=1;boundedLbl=1;spacingLeft=5;" parent="19" vertex="1">
                    <mxGeometry x="12.01" y="174.01464788732392" width="347.99" height="46.72957746478874" as="geometry"/>
                </mxCell>
                <mxCell id="25" value="" style="fontColor=#0066CC;verticalAlign=top;verticalLabelPosition=bottom;labelPosition=center;align=center;html=1;outlineConnect=0;fillColor=#CCCCCC;strokeColor=#6881B3;gradientColor=none;gradientDirection=north;strokeWidth=2;shape=mxgraph.networks.storage;fontSize=14;" parent="19" vertex="1">
                    <mxGeometry x="19.999999999999993" y="183.61670203036405" width="30" height="30.092987012987013" as="geometry"/>
                </mxCell>
                <mxCell id="26" value="&amp;lt;&amp;lt;MySQL&amp;gt;&amp;gt;&lt;br&gt;DB - Divalto" style="verticalAlign=top;align=center;shape=cube;size=10;direction=south;html=1;boundedLbl=1;spacingLeft=5;" parent="19" vertex="1">
                    <mxGeometry x="12.01" y="226.26816901408455" width="347.99" height="46.63253521126761" as="geometry"/>
                </mxCell>
                <mxCell id="27" value="&amp;lt;&amp;lt;MySQL&amp;gt;&amp;gt;&lt;br&gt;DB - Leblanc" style="verticalAlign=top;align=center;shape=cube;size=10;direction=south;html=1;boundedLbl=1;spacingLeft=5;" parent="19" vertex="1">
                    <mxGeometry x="12.01" y="278.52169014084507" width="347.99" height="45.95323943661972" as="geometry"/>
                </mxCell>
                <mxCell id="28" value="" style="fontColor=#0066CC;verticalAlign=top;verticalLabelPosition=bottom;labelPosition=center;align=center;html=1;outlineConnect=0;fillColor=#CCCCCC;strokeColor=#6881B3;gradientColor=none;gradientDirection=north;strokeWidth=2;shape=mxgraph.networks.storage;fontSize=14;" parent="19" vertex="1">
                    <mxGeometry x="19.999999999999993" y="235.7732778489117" width="30" height="30.092987012987013" as="geometry"/>
                </mxCell>
                <mxCell id="29" value="" style="fontColor=#0066CC;verticalAlign=top;verticalLabelPosition=bottom;labelPosition=center;align=center;html=1;outlineConnect=0;fillColor=#CCCCCC;strokeColor=#6881B3;gradientColor=none;gradientDirection=north;strokeWidth=2;shape=mxgraph.networks.storage;fontSize=14;" parent="19" vertex="1">
                    <mxGeometry x="19.999999999999993" y="287.34818181818184" width="30" height="30.092987012987013" as="geometry"/>
                </mxCell>
                <mxCell id="30" value="&amp;lt;&amp;lt;MySQL&amp;gt;&amp;gt;&lt;br&gt;DB - Prestashop" style="verticalAlign=top;align=center;shape=cube;size=10;direction=south;html=1;boundedLbl=1;spacingLeft=5;" parent="19" vertex="1">
                    <mxGeometry x="12.01" y="119.72323943661974" width="347.99" height="54.29140845070423" as="geometry"/>
                </mxCell>
                <mxCell id="31" value="" style="fontColor=#0066CC;verticalAlign=top;verticalLabelPosition=bottom;labelPosition=center;align=center;html=1;outlineConnect=0;fillColor=#CCCCCC;strokeColor=#6881B3;gradientColor=none;gradientDirection=north;strokeWidth=2;shape=mxgraph.networks.storage;fontSize=14;" parent="19" vertex="1">
                    <mxGeometry x="19.999999999999993" y="130.00391073715016" width="30" height="30.092987012987013" as="geometry"/>
                </mxCell>
                <mxCell id="36" value="&amp;lt;&amp;lt;Firebase&amp;lt;Firebase Hosting&amp;gt;&amp;gt;&amp;gt;&lt;br&gt;App Angular&amp;nbsp;" style="verticalAlign=top;align=left;shape=cube;size=10;direction=south;fontStyle=0;html=1;boundedLbl=1;spacingLeft=5;" parent="1" vertex="1">
                    <mxGeometry x="-760" y="60" width="420" height="990" as="geometry"/>
                </mxCell>
                <mxCell id="40" value="" style="fontColor=#0066CC;verticalAlign=top;verticalLabelPosition=bottom;labelPosition=center;align=center;html=1;outlineConnect=0;fillColor=#CCCCCC;strokeColor=#6881B3;gradientColor=none;gradientDirection=north;strokeWidth=2;shape=mxgraph.networks.secured;fontSize=14;" parent="36" vertex="1">
                    <mxGeometry x="389.2682926829268" y="-20.20408163265306" width="40.97560975609756" height="50.51020408163265" as="geometry"/>
                </mxCell>
                <mxCell id="43" value="" style="fontColor=#0066CC;verticalAlign=top;verticalLabelPosition=bottom;labelPosition=center;align=center;html=1;outlineConnect=0;fillColor=#CCCCCC;strokeColor=#6881B3;gradientColor=none;gradientDirection=north;strokeWidth=2;shape=mxgraph.networks.server;" parent="36" vertex="1">
                    <mxGeometry x="358.5365853658537" y="20.20408163265306" width="40.97560975609756" height="45.45918367346938" as="geometry"/>
                </mxCell>
                <mxCell id="45" value="AuthModule" style="shape=module;align=left;spacingLeft=20;align=center;verticalAlign=top;fillColor=#1ba1e2;fontColor=#ffffff;strokeColor=#006EAF;" parent="36" vertex="1">
                    <mxGeometry x="25" y="229.9971578947368" width="355" height="92.83073684210525" as="geometry"/>
                </mxCell>
                <mxCell id="46" value="DashboardModule" style="shape=module;align=left;spacingLeft=20;align=center;verticalAlign=top;fillColor=#6a00ff;fontColor=#ffffff;strokeColor=#3700CC;" parent="36" vertex="1">
                    <mxGeometry x="25" y="340" width="355" height="459.67" as="geometry"/>
                </mxCell>
                <mxCell id="47" value="«component»&lt;br&gt;&lt;b&gt;DomproComponent&lt;/b&gt;" style="html=1;dropTarget=0;" parent="36" vertex="1">
                    <mxGeometry x="67.5" y="390" width="290" height="51.99" as="geometry"/>
                </mxCell>
                <mxCell id="48" value="" style="shape=module;jettyWidth=8;jettyHeight=4;" parent="47" vertex="1">
                    <mxGeometry x="1" width="20" height="20" relative="1" as="geometry">
                        <mxPoint x="-27" y="7" as="offset"/>
                    </mxGeometry>
                </mxCell>
                <mxCell id="49" value="«component»&lt;br&gt;&lt;b&gt;DivaltoComponent&lt;/b&gt;" style="html=1;dropTarget=0;" parent="36" vertex="1">
                    <mxGeometry x="67.5" y="450" width="290" height="54.82" as="geometry"/>
                </mxCell>
                <mxCell id="50" value="" style="shape=module;jettyWidth=8;jettyHeight=4;" parent="49" vertex="1">
                    <mxGeometry x="1" width="20" height="20" relative="1" as="geometry">
                        <mxPoint x="-27" y="7" as="offset"/>
                    </mxGeometry>
                </mxCell>
                <mxCell id="51" value="«component»&lt;br&gt;&lt;b&gt;OrderComponent&lt;/b&gt;" style="html=1;dropTarget=0;dashed=1;fillColor=#ffcccc;strokeColor=#36393d;fontColor=#1A1A1A;" parent="36" vertex="1">
                    <mxGeometry x="67.5" y="520" width="290" height="54.42" as="geometry"/>
                </mxCell>
                <mxCell id="52" value="" style="shape=module;jettyWidth=8;jettyHeight=4;" parent="51" vertex="1">
                    <mxGeometry x="1" width="20" height="20" relative="1" as="geometry">
                        <mxPoint x="-27" y="7" as="offset"/>
                    </mxGeometry>
                </mxCell>
                <mxCell id="53" value="«component»&lt;br&gt;&lt;b&gt;ProductComponent&lt;/b&gt;" style="html=1;dropTarget=0;dashed=1;fillColor=#ffcccc;strokeColor=#36393d;fontColor=#1A1A1A;" parent="36" vertex="1">
                    <mxGeometry x="67.5" y="590" width="290" height="57.79" as="geometry"/>
                </mxCell>
                <mxCell id="54" value="" style="shape=module;jettyWidth=8;jettyHeight=4;" parent="53" vertex="1">
                    <mxGeometry x="1" width="20" height="20" relative="1" as="geometry">
                        <mxPoint x="-27" y="7" as="offset"/>
                    </mxGeometry>
                </mxCell>
                <mxCell id="55" value="«component»&lt;br&gt;&lt;b&gt;SignInComponent&lt;/b&gt;" style="html=1;dropTarget=0;" parent="36" vertex="1">
                    <mxGeometry x="65" y="260.3015789473684" width="290" height="52.10526315789473" as="geometry"/>
                </mxCell>
                <mxCell id="56" value="" style="shape=module;jettyWidth=8;jettyHeight=4;" parent="55" vertex="1">
                    <mxGeometry x="1" width="20" height="20" relative="1" as="geometry">
                        <mxPoint x="-27" y="7" as="offset"/>
                    </mxGeometry>
                </mxCell>
                <mxCell id="72" value="AdminModule" style="shape=module;align=left;spacingLeft=20;align=center;verticalAlign=top;fillColor=#fa6800;fontColor=#000000;strokeColor=#C73500;" parent="36" vertex="1">
                    <mxGeometry x="27.5" y="810" width="355" height="168.62" as="geometry"/>
                </mxCell>
                <mxCell id="89" value="«component»&lt;br&gt;&lt;b&gt;AccountComponent&lt;/b&gt;" style="html=1;dropTarget=0;" parent="36" vertex="1">
                    <mxGeometry x="65" y="730" width="290" height="56.19" as="geometry"/>
                </mxCell>
                <mxCell id="90" value="" style="shape=module;jettyWidth=8;jettyHeight=4;" parent="89" vertex="1">
                    <mxGeometry x="1" width="20" height="20" relative="1" as="geometry">
                        <mxPoint x="-27" y="7" as="offset"/>
                    </mxGeometry>
                </mxCell>
                <mxCell id="91" value="«component»&lt;br&gt;&lt;b&gt;UserComponent&lt;/b&gt;" style="html=1;dropTarget=0;" parent="36" vertex="1">
                    <mxGeometry x="60" y="850" width="290" height="53.15" as="geometry"/>
                </mxCell>
                <mxCell id="92" value="" style="shape=module;jettyWidth=8;jettyHeight=4;" parent="91" vertex="1">
                    <mxGeometry x="1" width="20" height="20" relative="1" as="geometry">
                        <mxPoint x="-27" y="7" as="offset"/>
                    </mxGeometry>
                </mxCell>
                <mxCell id="93" value="«component»&lt;br&gt;&lt;b&gt;SettingsComponent&lt;/b&gt;" style="html=1;dropTarget=0;" parent="36" vertex="1">
                    <mxGeometry x="60" y="910" width="290" height="56.94" as="geometry"/>
                </mxCell>
                <mxCell id="94" value="" style="shape=module;jettyWidth=8;jettyHeight=4;" parent="93" vertex="1">
                    <mxGeometry x="1" width="20" height="20" relative="1" as="geometry">
                        <mxPoint x="-27" y="7" as="offset"/>
                    </mxGeometry>
                </mxCell>
                <mxCell id="96" value="«component»&lt;br&gt;&lt;b&gt;AlertsComponent&lt;/b&gt;" style="html=1;dropTarget=0;" parent="36" vertex="1">
                    <mxGeometry x="27.5" y="65.66" width="290" height="34.34" as="geometry"/>
                </mxCell>
                <mxCell id="97" value="" style="shape=module;jettyWidth=8;jettyHeight=4;" parent="96" vertex="1">
                    <mxGeometry x="1" width="20" height="20" relative="1" as="geometry">
                        <mxPoint x="-27" y="7" as="offset"/>
                    </mxGeometry>
                </mxCell>
                <mxCell id="101" value="«service»&lt;br&gt;&lt;b&gt;AlertsService&lt;/b&gt;" style="html=1;dropTarget=0;" parent="36" vertex="1">
                    <mxGeometry x="27.5" y="110" width="290" height="34.34" as="geometry"/>
                </mxCell>
                <mxCell id="102" value="" style="shape=module;jettyWidth=8;jettyHeight=4;" parent="101" vertex="1">
                    <mxGeometry x="1" width="20" height="20" relative="1" as="geometry">
                        <mxPoint x="-27" y="7" as="offset"/>
                    </mxGeometry>
                </mxCell>
                <mxCell id="129" value="«service»&lt;br&gt;&lt;b&gt;UserService&lt;/b&gt;" style="html=1;dropTarget=0;" parent="36" vertex="1">
                    <mxGeometry x="27.5" y="160" width="290" height="34.34" as="geometry"/>
                </mxCell>
                <mxCell id="130" value="" style="shape=module;jettyWidth=8;jettyHeight=4;" parent="129" vertex="1">
                    <mxGeometry x="1" width="20" height="20" relative="1" as="geometry">
                        <mxPoint x="-27" y="7" as="offset"/>
                    </mxGeometry>
                </mxCell>
                <mxCell id="131" value="«component»&lt;br&gt;&lt;b&gt;CMSTemplateStyle&lt;/b&gt;" style="html=1;dropTarget=0;dashed=1;fillColor=#ffcccc;strokeColor=#36393d;fontColor=#1A1A1A;" parent="36" vertex="1">
                    <mxGeometry x="65" y="660" width="290" height="57.79" as="geometry"/>
                </mxCell>
                <mxCell id="132" value="" style="shape=module;jettyWidth=8;jettyHeight=4;" parent="131" vertex="1">
                    <mxGeometry x="1" width="20" height="20" relative="1" as="geometry">
                        <mxPoint x="-27" y="7" as="offset"/>
                    </mxGeometry>
                </mxCell>
                <mxCell id="154" value="&amp;lt;&amp;lt;cloud&amp;gt;&amp;gt;&lt;br&gt;&lt;b&gt;Partition Hostinger etsleblanc.fr&lt;/b&gt;&lt;br&gt;Espace cloud de déploiement des site Prestashop" style="verticalAlign=top;align=left;shape=cube;size=10;direction=south;fontStyle=0;html=1;boundedLbl=1;spacingLeft=5;" vertex="1" parent="1">
                    <mxGeometry x="210" y="260" width="405" height="260" as="geometry"/>
                </mxCell>
                <mxCell id="157" value="" style="html=1;outlineConnect=0;fillColor=#CCCCCC;strokeColor=#6881B3;gradientColor=none;gradientDirection=north;strokeWidth=2;shape=mxgraph.networks.cloud;fontColor=#ffffff;" vertex="1" parent="154">
                    <mxGeometry x="326.25" y="15.69" width="56.25" height="34.31" as="geometry"/>
                </mxCell>
                <mxCell id="158" value="" style="shape=image;verticalLabelPosition=bottom;labelBackgroundColor=default;verticalAlign=top;aspect=fixed;imageAspect=0;image=data:image/svg+xml,PHN2ZyB4bWxucz0iaHR0cDovL3d3dy53My5vcmcvMjAwMC9zdmciIHdpZHRoPSIyMTEyIiB2aWV3Qm94PSI3LjAwMiA4LjI4NyAxNDguMjAzIDE3NS40MjYiIHN0cm9rZS1taXRlcmxpbWl0PSIyIiBzdHJva2UtbGluZWpvaW49InJvdW5kIiBoZWlnaHQ9IjI1MDAiIGZpbGwtcnVsZT0iZXZlbm9kZCIgY2xpcC1ydWxlPSJldmVub2RkIj48cGF0aCBmaWxsPSIjNjc0N2M3IiBkPSJtNy4wMDIgOC4yODcgMzkuMzE5IDIxLjE3MnYzOS4zMmg1Ny40NjdsMzYuMjk1IDIxLjE3MmgtMTMzLjA4MXptMTQ4LjIwMyA3NS42MTV2LTU0LjQ0M2wtNDIuMzQ0LTIxLjE3MnY1MS40MTh6bTAgOTkuODExLTM5LjMxOS0yMS4xNzJ2LTM5LjMyaC01Ny40NjdsLTM2LjI5NS0yMS4xNzJoMTMzLjA4MXptLTE0OC4yMDMtNzUuNjE1djU0LjQ0M2w0Mi4zNDMgMjEuMTcydi01MS40MTh6Ii8+PC9zdmc+;" vertex="1" parent="154">
                    <mxGeometry x="281.25" y="17.93103448275862" width="4.582889509205553" height="5.428353608317614" as="geometry"/>
                </mxCell>
                <mxCell id="167" value="&amp;lt;&amp;lt;MySQL&amp;gt;&amp;gt;&lt;br&gt;DB - Prestashop" style="verticalAlign=top;align=center;shape=cube;size=10;direction=south;html=1;boundedLbl=1;spacingLeft=5;" vertex="1" parent="154">
                    <mxGeometry x="7.99" y="190.00323943661965" width="347.99" height="54.29140845070423" as="geometry"/>
                </mxCell>
                <mxCell id="168" value="" style="fontColor=#0066CC;verticalAlign=top;verticalLabelPosition=bottom;labelPosition=center;align=center;html=1;outlineConnect=0;fillColor=#CCCCCC;strokeColor=#6881B3;gradientColor=none;gradientDirection=north;strokeWidth=2;shape=mxgraph.networks.storage;fontSize=14;" vertex="1" parent="154">
                    <mxGeometry x="16" y="202.1" width="30" height="37.9" as="geometry"/>
                </mxCell>
                <mxCell id="169" value="PROD &amp;gt;&amp;gt; etsleblanc.fr/prod/" style="verticalAlign=top;align=center;shape=cube;size=10;direction=south;html=1;boundedLbl=1;spacingLeft=5;" vertex="1" parent="154">
                    <mxGeometry x="7.99" y="85" width="350" height="40" as="geometry"/>
                </mxCell>
                <mxCell id="170" value="DEV &amp;gt;&amp;gt; etsleblanc.fr/dev/" style="verticalAlign=top;align=center;shape=cube;size=10;direction=south;html=1;boundedLbl=1;spacingLeft=5;" vertex="1" parent="154">
                    <mxGeometry x="7.990000000000009" y="135" width="350" height="40" as="geometry"/>
                </mxCell>
                <mxCell id="178" value="" style="aspect=fixed;perimeter=ellipsePerimeter;html=1;align=center;shadow=0;dashed=0;spacingTop=3;image;image=img/lib/active_directory/web_server.svg;" vertex="1" parent="154">
                    <mxGeometry x="16" y="76" width="40" height="50" as="geometry"/>
                </mxCell>
                <mxCell id="179" value="" style="aspect=fixed;perimeter=ellipsePerimeter;html=1;align=center;shadow=0;dashed=0;spacingTop=3;image;image=img/lib/active_directory/web_server.svg;" vertex="1" parent="154">
                    <mxGeometry x="15" y="125" width="40" height="50" as="geometry"/>
                </mxCell>
                <mxCell id="171" value="&amp;lt;&amp;lt;mssql&amp;gt;&amp;gt;&lt;br&gt;&lt;b&gt;sqlserver.divalto.c12313221.fr&lt;/b&gt;" style="verticalAlign=top;align=left;shape=cube;size=10;direction=south;fontStyle=0;html=1;boundedLbl=1;spacingLeft=5;fillColor=#f0a30a;fontColor=#000000;strokeColor=#BD7000;" vertex="1" parent="1">
                    <mxGeometry x="215" y="190" width="400" height="60" as="geometry"/>
                </mxCell>
                <mxCell id="187" style="edgeStyle=orthogonalEdgeStyle;html=1;exitX=0;exitY=0;exitDx=35;exitDy=400;exitPerimeter=0;entryX=0;entryY=0.202;entryDx=0;entryDy=0;entryPerimeter=0;startArrow=block;startFill=1;" edge="1" parent="1" source="180" target="36">
                    <mxGeometry relative="1" as="geometry">
                        <Array as="points">
                            <mxPoint x="180" y="85"/>
                            <mxPoint x="180" y="50"/>
                            <mxPoint x="-425" y="50"/>
                        </Array>
                    </mxGeometry>
                </mxCell>
                <mxCell id="180" value="&amp;lt;&amp;lt;Firebase Hosting&amp;gt;&amp;gt;&lt;br&gt;&lt;span id=&quot;docs-internal-guid-9135d619-7fff-a522-e6dc-08429bcc1e02&quot;&gt;&lt;a style=&quot;text-decoration-line: none;&quot; href=&quot;https://dashboard-angular-4156e.web.app/&quot;&gt;&lt;span style=&quot;font-size: 16pt; font-family: Roboto, sans-serif; color: rgb(0, 151, 167); background-color: transparent; font-weight: 700; font-variant-numeric: normal; font-variant-east-asian: normal; text-decoration-line: underline; text-decoration-skip-ink: none; vertical-align: baseline;&quot;&gt;dashboard-angular-4156e.web.app&lt;/span&gt;&lt;/a&gt;&lt;/span&gt;" style="verticalAlign=top;align=left;shape=cube;size=10;direction=south;fontStyle=0;html=1;boundedLbl=1;spacingLeft=5;fillColor=#e3c800;fontColor=#000000;strokeColor=#B09500;" vertex="1" parent="1">
                    <mxGeometry x="215" y="50" width="400" height="60" as="geometry"/>
                </mxCell>
                <mxCell id="183" style="edgeStyle=orthogonalEdgeStyle;html=1;exitX=0;exitY=0.5;exitDx=0;exitDy=0;exitPerimeter=0;entryX=0;entryY=0;entryDx=25;entryDy=0;entryPerimeter=0;startArrow=block;startFill=1;" edge="1" parent="1" source="181" target="180">
                    <mxGeometry relative="1" as="geometry"/>
                </mxCell>
                <mxCell id="184" style="edgeStyle=orthogonalEdgeStyle;html=1;exitX=0;exitY=0.5;exitDx=0;exitDy=0;exitPerimeter=0;entryX=0;entryY=0;entryDx=15;entryDy=0;entryPerimeter=0;startArrow=block;startFill=1;" edge="1" parent="1" source="181" target="169">
                    <mxGeometry relative="1" as="geometry"/>
                </mxCell>
                <mxCell id="185" style="edgeStyle=orthogonalEdgeStyle;html=1;exitX=0;exitY=0.5;exitDx=0;exitDy=0;exitPerimeter=0;entryX=0;entryY=0;entryDx=15;entryDy=0;entryPerimeter=0;startArrow=block;startFill=1;" edge="1" parent="1" source="181" target="170">
                    <mxGeometry relative="1" as="geometry"/>
                </mxCell>
                <mxCell id="181" value="Administrateur" style="fontColor=#ffffff;verticalAlign=top;verticalLabelPosition=bottom;labelPosition=center;align=center;html=1;outlineConnect=0;fillColor=#a20025;strokeColor=#6F0000;gradientDirection=north;strokeWidth=2;shape=mxgraph.networks.user_male;" vertex="1" parent="1">
                    <mxGeometry x="720" y="70" width="70" height="140" as="geometry"/>
                </mxCell>
                <mxCell id="186" style="edgeStyle=orthogonalEdgeStyle;html=1;exitX=0;exitY=0.5;exitDx=0;exitDy=0;exitPerimeter=0;entryX=0;entryY=0;entryDx=15;entryDy=0;entryPerimeter=0;startArrow=block;startFill=1;" edge="1" parent="1" source="182" target="169">
                    <mxGeometry relative="1" as="geometry">
                        <Array as="points">
                            <mxPoint x="690" y="440"/>
                            <mxPoint x="690" y="360"/>
                        </Array>
                    </mxGeometry>
                </mxCell>
                <mxCell id="182" value="Clients - Visiteur Web" style="fontColor=#ffffff;verticalAlign=top;verticalLabelPosition=bottom;labelPosition=center;align=center;html=1;outlineConnect=0;fillColor=#60a917;strokeColor=#2D7600;gradientDirection=north;strokeWidth=2;shape=mxgraph.networks.users;" vertex="1" parent="1">
                    <mxGeometry x="700" y="380" width="110" height="140" as="geometry"/>
                </mxCell>
            </root>
        </mxGraphModel>
    </diagram>
</mxfile>
